<svg xmlns="http://www.w3.org/2000/svg" viewBox="0 0 2184 24" width="2184" height="24"><g stroke="#979797"><path d="M5.06 14.328l-.053 4.778 13.986.101v-4.929" fill="none" stroke-linecap="square" stroke-linejoin="round"/><path d="M12.027 16.204V5.934" fill="#d8d8d8" stroke-linejoin="round"/><path d="M9.087 9.96l2.915-4.026 2.965 4.132" fill="none" stroke-linecap="round"/></g><g stroke="#979797"><path d="M29.06 14.328l-.053 4.778 13.986.101v-4.929" fill="none" stroke-linecap="square" stroke-linejoin="round"/><path d="M36.027 16.204V5.934" fill="#d8d8d8" stroke-dasharray="10.196919160412667,0.0735308395873327" stroke-dashoffset="10.196919" stroke-linejoin="round"/><path d="M33.087 9.96l2.915-4.026 2.965 4.132" fill="none" stroke-linecap="round"/></g><g stroke="#979797"><path d="M53.06 14.328l-.053 4.778 13.986.101v-4.929" fill="none" stroke-linecap="square" stroke-linejoin="round"/><path d="M60.027 16.204V5.934" fill="#d8d8d8" stroke-dasharray="9.93610873024982,0.33434126975018047" stroke-dashoffset="9.936109" stroke-linejoin="round"/><path d="M57.087 9.96l2.915-4.026 2.965 4.132" fill="none" stroke-linecap="round"/></g><g stroke="#979797"><path d="M77.06 14.328l-.053 4.778 13.986.101v-4.929" fill="none" stroke-linecap="square" stroke-linejoin="round"/><path d="M84.027 16.204V5.934" fill="#d8d8d8" stroke-dasharray="9.403453047902413,0.8669969520975864" stroke-dashoffset="9.403453" stroke-linejoin="round"/><path d="M81.087 9.96l2.915-4.026 2.965 4.132" fill="none" stroke-linecap="round"/></g><g stroke="#979797"><path d="M101.06 14.328l-.053 4.778 13.986.101v-4.929" fill="none" stroke-linecap="square" stroke-linejoin="round"/><path d="M108.027 16.204V5.934" fill="#d8d8d8" stroke-dasharray="8.486643187957418,1.7838068120425818" stroke-dashoffset="8.486643" stroke-linejoin="round"/><path d="M105.087 9.96l2.915-4.026 2.965 4.132" fill="none" stroke-linecap="round"/></g><g stroke="#979797"><path d="M125.06 14.328l-.053 4.778 13.986.101v-4.929" fill="none" stroke-linecap="square" stroke-linejoin="round"/><path d="M132.027 16.204V5.934" fill="#d8d8d8" stroke-dasharray="7.1411469883982335,3.129303011601767" stroke-dashoffset="7.141147" stroke-linejoin="round"/><path d="M129.087 9.96l2.915-4.026 2.965 4.132" fill="none" stroke-linecap="round"/></g><g stroke="#979797"><path d="M149.06 14.328l-.053 4.778 13.986.101v-4.929" fill="none" stroke-linecap="square" stroke-linejoin="round"/><path d="M156.027 16.204V5.934" fill="#d8d8d8" stroke-dasharray="5.604159608091032,4.666290391908968" stroke-dashoffset="5.60416" stroke-linejoin="round"/><path d="M153.087 9.96l2.915-4.026 2.965 4.132" fill="none" stroke-linecap="round"/></g><g stroke="#979797"><path d="M173.06 14.328l-.053 4.778 13.986.101v-4.929" fill="none" stroke-linecap="square" stroke-linejoin="round"/><path d="M180.027 16.204V5.934" fill="#d8d8d8" stroke-dasharray="4.23537912018305,6.03507087981695" stroke-dashoffset="4.235379" stroke-linejoin="round"/><path d="M177.087 9.96l2.915-4.026 2.965 4.132" fill="none" stroke-linecap="round"/></g><g stroke="#979797"><path d="M197.06 14.328l-.053 4.778 13.986.101v-4.929" fill="none" stroke-linecap="square" stroke-linejoin="round"/><path d="M204.027 16.204V5.934" fill="#d8d8d8" stroke-dasharray="3.155162277415073,7.115287722584927" stroke-dashoffset="3.155162" stroke-linejoin="round"/><path d="M201.087 9.96l2.915-4.026 2.965 4.132" fill="none" stroke-linecap="round"/></g><g stroke="#979797"><path d="M221.06 14.328l-.053 4.778 13.986.101v-4.929" fill="none" stroke-linecap="square" stroke-linejoin="round"/><path d="M228.027 16.204V5.934" fill="#d8d8d8" stroke-dasharray="2.3266900581193686,7.943759941880631" stroke-dashoffset="2.32669" stroke-linejoin="round"/><path d="M225.087 9.96l2.915-4.026 2.965 4.132" fill="none" stroke-linecap="round"/></g><g stroke="#979797"><path d="M245.06 14.328l-.053 4.778 13.986.101v-4.929" fill="none" stroke-linecap="square" stroke-linejoin="round"/><path d="M252.027 16.204V5.934" fill="#d8d8d8" stroke-dasharray="1.6911755305360416,8.579274469463959" stroke-dashoffset="1.691176" stroke-linejoin="round"/><path d="M249.087 9.96l2.915-4.026 2.965 4.132" fill="none" stroke-linecap="round"/></g><g stroke="#979797"><path d="M269.06 14.328l-.053 4.778 13.986.101v-4.929" fill="none" stroke-linecap="square" stroke-linejoin="round"/><path d="M276.027 16.204V5.934" fill="#d8d8d8" stroke-dasharray="1.202193209516791,9.06825679048321" stroke-dashoffset="1.202193" stroke-linejoin="round"/><path d="M273.087 9.96l2.915-4.026 2.965 4.132" fill="none" stroke-linecap="round"/></g><g stroke="#979797"><path d="M293.06 14.328l-.053 4.778 13.986.101v-4.929" fill="none" stroke-linecap="square" stroke-linejoin="round"/><path d="M300.027 16.204V5.934" fill="#d8d8d8" stroke-dasharray="0.8266852433999867,9.443764756600014" stroke-dashoffset=".826685" stroke-linejoin="round"/><path d="M297.087 9.96l2.915-4.026 2.965 4.132" fill="none" stroke-linecap="round"/></g><g stroke="#979797"><path d="M317.06 14.328l-.053 4.778 13.986.101v-4.929" fill="none" stroke-linecap="square" stroke-linejoin="round"/><path d="M324.027 16.204V5.934" fill="#d8d8d8" stroke-dasharray="0.5412230427670082,9.729226957232992" stroke-dashoffset=".541223" stroke-linejoin="round"/><path d="M321.087 9.96l2.915-4.026 2.965 4.132" fill="none" stroke-linecap="round"/></g><g stroke="#979797"><path d="M341.06 14.328l-.053 4.778 13.986.101v-4.929" fill="none" stroke-linecap="square" stroke-linejoin="round"/><path d="M348.027 16.204V5.934" fill="#d8d8d8" stroke-dasharray="0.3288739949264913,9.94157600507351" stroke-dashoffset=".328874" stroke-linejoin="round"/><path d="M345.086 9.184L348 5.158l2.967 4.132" fill="none" stroke-linecap="round"/></g><g stroke="#979797"><path d="M365.06 14.328l-.053 4.778 13.986.101v-4.929" fill="none" stroke-linecap="square" stroke-linejoin="round"/><path d="M372.027 16.204V5.934" fill="#d8d8d8" stroke-dasharray="0.17709436241063048,10.09335563758937" stroke-dashoffset=".177094" stroke-linejoin="round"/><path d="M369.086 8.575l2.915-4.026 2.966 4.132" fill="none" stroke-linecap="round"/></g><g stroke="#979797"><path d="M389.06 14.328l-.053 4.778 13.986.101v-4.929" fill="none" stroke-linecap="square" stroke-linejoin="round"/><path d="M396.027 16.204V5.934" fill="#d8d8d8" stroke-dasharray="0.07636466877368783,10.194085331226313" stroke-dashoffset=".076365" stroke-linejoin="round"/><path d="M393.086 8.086l2.915-4.026 2.966 4.132" fill="none" stroke-linecap="round"/></g><g stroke="#979797"><path d="M413.06 14.328l-.053 4.778 13.986.101v-4.929" fill="none" stroke-linecap="square" stroke-linejoin="round"/><path d="M420.027 16.204V5.934" fill="#d8d8d8" stroke-dasharray="0.019300132427012506,10.251149867572988" stroke-dashoffset=".0193" stroke-linejoin="round"/><path d="M417.086 7.68l2.915-4.026 2.966 4.133" fill="none" stroke-linecap="round"/></g><g stroke="#979797"><path d="M437.06 14.328l-.053 4.778 13.986.101v-4.929" fill="none" stroke-linecap="square" stroke-linejoin="round"/><path d="M444.027 16.204V5.934" fill="#d8d8d8" stroke-dasharray="0.00005919149906015954,10.27039080850094" stroke-dashoffset=".000059" stroke-linejoin="round"/><path d="M441.086 7.338l2.915-4.026 2.966 4.132" fill="none" stroke-linecap="round"/></g><g stroke="#979797"><path d="M461.06 14.328l-.053 4.778 13.986.101v-4.929" fill="none" stroke-linecap="square" stroke-linejoin="round"/><path d="M468.027 16.204V5.934" fill="#d8d8d8" stroke-dasharray="0,10.27045" stroke-dashoffset="10.27045" stroke-linejoin="round"/><path d="M465.086 7.047l2.915-4.026 2.966 4.132" fill="none" stroke-linecap="round"/></g><g stroke="#979797"><path d="M485.06 14.328l-.053 4.778 13.986.101v-4.929" fill="none" stroke-linecap="square" stroke-linejoin="round"/><path d="M492.027 16.204V5.934" fill="#d8d8d8" stroke-dasharray="0,10.27045" stroke-dashoffset="10.27045" stroke-linejoin="round"/><path d="M489.086 6.798l2.916-4.026 2.965 4.132" fill="none" stroke-linecap="round"/></g><g stroke="#979797"><path d="M509.06 14.328l-.053 4.778 13.986.101v-4.929" fill="none" stroke-linecap="square" stroke-linejoin="round"/><path d="M516.027 16.204V5.934" fill="#d8d8d8" stroke-dasharray="0,10.27045" stroke-dashoffset="10.27045" stroke-linejoin="round"/><path d="M513.086 6.587l2.916-4.026 2.965 4.132" fill="none" stroke-linecap="round"/></g><g stroke="#979797"><path d="M533.06 14.328l-.053 4.778 13.986.101v-4.929" fill="none" stroke-linecap="square" stroke-linejoin="round"/><path d="M540.027 16.204V5.934" fill="#d8d8d8" stroke-dasharray="0,10.27045" stroke-dashoffset="10.27045" stroke-linejoin="round"/><path d="M537.086 6.408l2.916-4.026 2.965 4.133" fill="none" stroke-linecap="round"/></g><g stroke="#979797"><path d="M557.06 14.328l-.053 4.778 13.986.101v-4.929" fill="none" stroke-linecap="square" stroke-linejoin="round"/><path d="M564.027 16.204V5.934" fill="#d8d8d8" stroke-dasharray="0,10.27045" stroke-dashoffset="10.27045" stroke-linejoin="round"/><path d="M561.086 6.259l2.916-4.026 2.965 4.132" fill="none" stroke-linecap="round"/></g><g stroke="#979797"><path d="M581.06 14.328l-.053 4.778 13.986.101v-4.929" fill="none" stroke-linecap="square" stroke-linejoin="round"/><path d="M588.027 16.204V5.934" fill="#d8d8d8" stroke-dasharray="0,10.27045" stroke-dashoffset="10.27045" stroke-linejoin="round"/><path d="M585.086 6.135l2.916-4.026 2.965 4.132" fill="none" stroke-linecap="round"/></g><g stroke="#979797"><path d="M605.06 14.328l-.053 4.778 13.986.101v-4.929" fill="none" stroke-linecap="square" stroke-linejoin="round"/><path d="M612.027 16.204V5.934" fill="#d8d8d8" stroke-dasharray="0,10.27045" stroke-dashoffset="10.27045" stroke-linejoin="round"/><path d="M609.086 6.035l2.916-4.026 2.965 4.132" fill="none" stroke-linecap="round"/></g><g stroke="#979797"><path d="M629.06 14.328l-.053 4.778 13.986.101v-4.929" fill="none" stroke-linecap="square" stroke-linejoin="round"/><path d="M636.027 16.204V5.934" fill="#d8d8d8" stroke-dasharray="0,10.27045" stroke-dashoffset="10.27045" stroke-linejoin="round"/><path d="M633.086 5.956l2.916-4.026 2.965 4.132" fill="none" stroke-linecap="round"/></g><g stroke="#979797"><path d="M653.06 14.328l-.053 4.778 13.986.101v-4.929" fill="none" stroke-linecap="square" stroke-linejoin="round"/><path d="M660.027 16.204V5.934" fill="#d8d8d8" stroke-dasharray="0,10.27045" stroke-dashoffset="10.27045" stroke-linejoin="round"/><path d="M657.086 5.898l2.916-4.026 2.965 4.132" fill="none" stroke-linecap="round"/></g><g stroke="#979797"><path d="M677.06 14.328l-.053 4.778 13.986.101v-4.929" fill="none" stroke-linecap="square" stroke-linejoin="round"/><path d="M684.027 16.204V5.934" fill="#d8d8d8" stroke-dasharray="0,10.27045" stroke-dashoffset="10.27045" stroke-linejoin="round"/><path d="M681.086 5.858l2.916-4.026 2.965 4.132" fill="none" stroke-linecap="round"/></g><g stroke="#979797"><path d="M701.06 14.328l-.053 4.778 13.986.101v-4.929" fill="none" stroke-linecap="square" stroke-linejoin="round"/><path d="M708.027 16.204V5.934" fill="#d8d8d8" stroke-dasharray="0,10.27045" stroke-dashoffset="10.27045" stroke-linejoin="round"/><path d="M705.086 5.835l2.916-4.026 2.965 4.132" fill="none" stroke-linecap="round"/></g><g stroke="#979797"><path d="M725.06 14.328l-.053 4.778 13.986.101v-4.929" fill="none" stroke-linecap="square" stroke-linejoin="round"/><path d="M732.027 16.204V5.934" fill="#d8d8d8" stroke-dasharray="0,10.27045" stroke-dashoffset="10.27045" stroke-linejoin="round"/><path d="M734.967 5.934l-2.965-4.132-2.916 4.026" fill="none" stroke-linecap="round"/></g><g stroke="#979797"><path d="M749.06 14.328l-.053 4.778 13.986.101v-4.929" fill="none" stroke-linecap="square" stroke-linejoin="round"/><path d="M756.027 16.204V5.934" fill="#d8d8d8" stroke-dasharray="0,10.27045" stroke-dashoffset="10.27045" stroke-linejoin="round"/><path d="M758.967 5.857l-2.964-3.976-2.917 3.87" fill="none" stroke-linecap="round"/></g><g stroke="#979797"><path d="M773.06 14.328l-.053 4.778 13.986.101v-4.929" fill="none" stroke-linecap="square" stroke-linejoin="round"/><path d="M780.027 16.204V5.934" fill="#d8d8d8" stroke-dasharray="0,10.27045" stroke-dashoffset="10.27045" stroke-linejoin="round"/><path d="M782.967 5.575l-2.961-3.404-2.92 3.298" fill="none" stroke-linecap="round"/></g><g stroke="#979797"><path d="M797.06 14.328l-.053 4.778 13.986.101v-4.929" fill="none" stroke-linecap="square" stroke-linejoin="round"/><path d="M804.027 16.204V5.934" fill="#d8d8d8" stroke-dasharray="0,10.27045" stroke-dashoffset="10.27045" stroke-linejoin="round"/><path d="M806.967 4.957l-2.953-2.153-2.928 2.047" fill="none" stroke-linecap="round"/></g><g stroke="#979797"><path d="M821.06 14.328l-.053 4.778 13.986.101v-4.929" fill="none" stroke-linecap="square" stroke-linejoin="round"/><path d="M828.027 16.204V5.934" fill="#d8d8d8" stroke-dasharray="0,10.27045" stroke-dashoffset="10.27045" stroke-linejoin="round"/><path d="M830.967 4.076l-2.942-.367-2.939.261" fill="none" stroke-linecap="round"/></g><g stroke="#979797"><path d="M845.06 14.328l-.053 4.778 13.986.101v-4.929" fill="none" stroke-linecap="square" stroke-linejoin="round"/><path d="M852.027 16.204V5.934" fill="#d8d8d8" stroke-dasharray="0,10.27045" stroke-dashoffset="10.27045" stroke-linejoin="round"/><path d="M854.967 3.326l-2.933 1.153-2.947-1.259" fill="none" stroke-linecap="round"/></g><g stroke="#979797"><path d="M869.06 14.328l-.053 4.778 13.986.101v-4.929" fill="none" stroke-linecap="square" stroke-linejoin="round"/><path d="M876.027 16.204V5.934" fill="#d8d8d8" stroke-dasharray="0,10.27045" stroke-dashoffset="10.27045" stroke-linejoin="round"/><path d="M878.967 2.812l-2.926 2.195-2.954-2.301" fill="none" stroke-linecap="round"/></g><g stroke="#979797"><path d="M893.06 14.328l-.053 4.778 13.986.101v-4.929" fill="none" stroke-linecap="square" stroke-linejoin="round"/><path d="M900.027 16.204V5.934" fill="#d8d8d8" stroke-dasharray="0,10.27045" stroke-dashoffset="10.27045" stroke-linejoin="round"/><path d="M902.967 2.465l-2.922 2.897-2.958-3.003" fill="none" stroke-linecap="round"/></g><g stroke="#979797"><path d="M917.06 14.328l-.053 4.778 13.986.101v-4.929" fill="none" stroke-linecap="square" stroke-linejoin="round"/><path d="M924.027 16.204V5.934" fill="#d8d8d8" stroke-dasharray="0,10.27045" stroke-dashoffset="10.27045" stroke-linejoin="round"/><path d="M926.967 2.231l-2.919 3.372-2.961-3.478" fill="none" stroke-linecap="round"/></g><g stroke="#979797"><path d="M941.06 14.328l-.053 4.778 13.986.101v-4.929" fill="none" stroke-linecap="square" stroke-linejoin="round"/><path d="M948.027 16.204V5.934" fill="#d8d8d8" stroke-dasharray="0,10.27045" stroke-dashoffset="10.27045" stroke-linejoin="round"/><path d="M950.967 2.075l-2.917 3.687-2.963-3.793" fill="none" stroke-linecap="round"/></g><g stroke="#979797"><path d="M965.06 14.328l-.053 4.778 13.986.101v-4.929" fill="none" stroke-linecap="square" stroke-linejoin="round"/><path d="M972.027 16.204V5.934" fill="#d8d8d8" stroke-dasharray="0,10.27045" stroke-dashoffset="10.27045" stroke-linejoin="round"/><path d="M974.967 1.978l-2.916 3.884-2.964-3.99" fill="none" stroke-linecap="round"/></g><g stroke="#979797"><path d="M989.06 14.328l-.053 4.778 13.986.101v-4.929" fill="none" stroke-linecap="square" stroke-linejoin="round"/><path d="M996.027 16.204V5.934" fill="#d8d8d8" stroke-dasharray="0,10.27045" stroke-dashoffset="10.27045" stroke-linejoin="round"/><path d="M998.967 1.925l-2.915 3.991-2.965-4.097" fill="none" stroke-linecap="round"/></g><g stroke="#979797"><path d="M1013.06 14.328l-.053 4.778 13.986.101v-4.929" fill="none" stroke-linecap="square" stroke-linejoin="round"/><path d="M1020.027 16.204V5.934" fill="#d8d8d8" stroke-dasharray="0,10.27045" stroke-dashoffset="10.27045" stroke-linejoin="round"/><path d="M1022.967 1.908l-2.915 4.026-2.965-4.132" fill="none" stroke-linecap="round"/></g><g stroke="#979797"><path d="M1037.06 14.328l-.053 4.778 13.986.101v-4.929" fill="none" stroke-linecap="square" stroke-linejoin="round"/><path d="M1044.027 16.204V5.934" fill="#d8d8d8" stroke-dasharray="0.027820208822251648,10.242629791177748" stroke-dashoffset=".02782" stroke-linejoin="round"/><path d="M1046.967 1.938l-2.915 4.026-2.965-4.132" fill="none" stroke-linecap="round"/></g><g stroke="#979797"><path d="M1061.06 14.328l-.053 4.778 13.986.101v-4.929" fill="none" stroke-linecap="square" stroke-linejoin="round"/><path d="M1068.027 16.204V5.934" fill="#d8d8d8" stroke-dasharray="0.12843501357417011,10.14201498642583" stroke-dashoffset=".128435" stroke-linejoin="round"/><path d="M1070.967 2.046l-2.915 4.026-2.965-4.132" fill="none" stroke-linecap="round"/></g><g stroke="#979797"><path d="M1085.06 14.328l-.053 4.778 13.986.101v-4.929" fill="none" stroke-linecap="square" stroke-linejoin="round"/><path d="M1092.027 16.204V5.934" fill="#d8d8d8" stroke-dasharray="0.3217857685274207,9.948664231472579" stroke-dashoffset=".321786" stroke-linejoin="round"/><path d="M1094.966 2.253l-2.915 4.026-2.965-4.132" fill="none" stroke-linecap="round"/></g><g stroke="#979797"><path d="M1109.06 14.328l-.053 4.778 13.986.101v-4.929" fill="none" stroke-linecap="square" stroke-linejoin="round"/><path d="M1116.027 16.204V5.934" fill="#d8d8d8" stroke-dasharray="0.6344837337170545,9.635966266282946" stroke-dashoffset=".634484" stroke-linejoin="round"/><path d="M1118.965 2.589l-2.915 4.026-2.965-4.132" fill="none" stroke-linecap="round"/></g><g stroke="#979797"><path d="M1133.06 14.328l-.053 4.778 13.986.101v-4.929" fill="none" stroke-linecap="square" stroke-linejoin="round"/><path d="M1140.027 16.204V5.934" fill="#d8d8d8" stroke-dasharray="1.1001822455649641,9.170267754435036" stroke-dashoffset="1.100182" stroke-linejoin="round"/><path d="M1142.964 3.088l-2.915 4.026-2.965-4.132" fill="none" stroke-linecap="round"/></g><g stroke="#979797"><path d="M1157.06 14.328l-.053 4.778 13.986.101v-4.929" fill="none" stroke-linecap="square" stroke-linejoin="round"/><path d="M1164.027 16.204V5.934" fill="#d8d8d8" stroke-dasharray="1.7533993752932329,8.517050624706767" stroke-dashoffset="1.753399" stroke-linejoin="round"/><path d="M1166.962 3.789l-2.915 4.026-2.965-4.132" fill="none" stroke-linecap="round"/></g><g stroke="#979797"><path d="M1181.06 14.328l-.053 4.778 13.986.101v-4.929" fill="none" stroke-linecap="square" stroke-linejoin="round"/><path d="M1188.027 16.204V5.934" fill="#d8d8d8" stroke-dasharray="2.6059222393563144,7.6645277606436855" stroke-dashoffset="2.605922" stroke-linejoin="round"/><path d="M1190.96 4.704l-2.915 4.026-2.965-4.132" fill="none" stroke-linecap="round"/></g><g stroke="#979797"><path d="M1205.06 14.328l-.053 4.778 13.986.101v-4.929" fill="none" stroke-linecap="square" stroke-linejoin="round"/><path d="M1212.027 16.204V5.934" fill="#d8d8d8" stroke-dasharray="3.6060701940910205,6.66437980590898" stroke-dashoffset="3.60607" stroke-linejoin="round"/><path d="M1214.958 5.777l-2.915 4.026-2.965-4.132" fill="none" stroke-linecap="round"/></g><g stroke="#979797"><path d="M1229.06 14.328l-.053 4.778 13.986.101v-4.929" fill="none" stroke-linecap="square" stroke-linejoin="round"/><path d="M1236.027 16.204V5.934" fill="#d8d8d8" stroke-dasharray="4.636120619135218,5.6343293808647825" stroke-dashoffset="4.636121" stroke-linejoin="round"/><path d="M1238.955 6.882l-2.915 4.026-2.965-4.132" fill="none" stroke-linecap="round"/></g><g stroke="#979797"><path d="M1253.06 14.328l-.053 4.778 13.986.101v-4.929" fill="none" stroke-linecap="square" stroke-linejoin="round"/><path d="M1260.027 16.204V5.934" fill="#d8d8d8" stroke-dasharray="5.586402185157959,4.6840478148420415" stroke-dashoffset="5.586402" stroke-linejoin="round"/><path d="M1262.952 7.902l-2.915 4.026-2.965-4.132" fill="none" stroke-linecap="round"/></g><g stroke="#979797"><path d="M1277.06 14.328l-.053 4.778 13.986.101v-4.929" fill="none" stroke-linecap="square" stroke-linejoin="round"/><path d="M1284.027 16.204V5.934" fill="#d8d8d8" stroke-dasharray="6.409034876386464,3.861415123613536" stroke-dashoffset="6.409035" stroke-linejoin="round"/><path d="M1286.95 8.784l-2.915 4.026-2.965-4.132" fill="none" stroke-linecap="round"/></g><g stroke="#979797"><path d="M1301.06 14.328l-.053 4.778 13.986.101v-4.929" fill="none" stroke-linecap="square" stroke-linejoin="round"/><path d="M1308.027 16.204V5.934" fill="#d8d8d8" stroke-dasharray="7.102550700954473,3.1678992990455273" stroke-dashoffset="7.102551" stroke-linejoin="round"/><path d="M1310.948 9.528l-2.915 4.026-2.965-4.132" fill="none" stroke-linecap="round"/></g><g stroke="#979797"><path d="M1325.06 14.328l-.053 4.778 13.986.101v-4.929" fill="none" stroke-linecap="square" stroke-linejoin="round"/><path d="M1332.027 16.204V5.934" fill="#d8d8d8" stroke-dasharray="7.682875440961932,2.5875745590380683" stroke-dashoffset="7.682875" stroke-linejoin="round"/><path d="M1334.947 10.151l-2.915 4.026-2.965-4.132" fill="none" stroke-linecap="round"/></g><g stroke="#979797"><path d="M1349.06 14.328l-.053 4.778 13.986.101v-4.929" fill="none" stroke-linecap="square" stroke-linejoin="round"/><path d="M1356.027 16.204V5.934" fill="#d8d8d8" stroke-dasharray="8.1684546030183,2.1019953969816987" stroke-dashoffset="8.168455" stroke-linejoin="round"/><path d="M1358.946 10.672l-2.915 4.026-2.965-4.132" fill="none" stroke-linecap="round"/></g><g stroke="#979797"><path d="M1373.06 14.328l-.053 4.778 13.986.101v-4.929" fill="none" stroke-linecap="square" stroke-linejoin="round"/><path d="M1380.027 16.204V5.934" fill="#d8d8d8" stroke-dasharray="8.575492049525275,1.6949579504747252" stroke-dashoffset="8.575492" stroke-linejoin="round"/><path d="M1382.944 11.109l-2.915 4.026-2.965-4.132" fill="none" stroke-linecap="round"/></g><g stroke="#979797"><path d="M1397.06 14.328l-.053 4.778 13.986.101v-4.929" fill="none" stroke-linecap="square" stroke-linejoin="round"/><path d="M1404.027 16.204V5.934" fill="#d8d8d8" stroke-dasharray="8.917131051612952,1.3533189483870487" stroke-dashoffset="8.917131" stroke-linejoin="round"/><path d="M1406.944 11.475l-2.915 4.026-2.965-4.132" fill="none" stroke-linecap="round"/></g><g stroke="#979797"><path d="M1421.06 14.328l-.053 4.778 13.986.101v-4.929" fill="none" stroke-linecap="square" stroke-linejoin="round"/><path d="M1428.027 16.204V5.934" fill="#d8d8d8" stroke-dasharray="9.203791549970493,1.0666584500295069" stroke-dashoffset="9.203792" stroke-linejoin="round"/><path d="M1430.943 11.783l-2.915 4.026-2.965-4.132" fill="none" stroke-linecap="round"/></g><g stroke="#979797"><path d="M1445.06 14.328l-.053 4.778 13.986.101v-4.929" fill="none" stroke-linecap="square" stroke-linejoin="round"/><path d="M1452.027 16.204V5.934" fill="#d8d8d8" stroke-dasharray="9.443721128158653,0.8267288718413467" stroke-dashoffset="9.443721" stroke-linejoin="round"/><path d="M1454.942 12.04l-2.915 4.026-2.965-4.132" fill="none" stroke-linecap="round"/></g><g stroke="#979797"><path d="M1469.06 14.328l-.053 4.793 13.986.101v-4.944" fill="none" stroke-linecap="square" stroke-linejoin="round"/><path d="M1476.027 16.204V5.934" fill="#d8d8d8" stroke-dasharray="9.643493158616167,0.6269568413838343" stroke-dashoffset="9.643493" stroke-linejoin="round"/><path d="M1478.942 12.254l-2.915 4.026-2.965-4.132" fill="none" stroke-linecap="round"/></g><g stroke="#979797"><path d="M1493.06 14.329l-.053 4.843 13.986.103v-4.997" fill="none" stroke-linecap="square" stroke-linejoin="round"/><path d="M1500.027 16.204V5.934" fill="#d8d8d8" stroke-dasharray="9.808400390536551,0.46204960946344936" stroke-dashoffset="9.8084" stroke-linejoin="round"/><path d="M1502.941 12.431l-2.915 4.026-2.965-4.132" fill="none" stroke-linecap="round"/></g><g stroke="#979797"><path d="M1517.06 14.33l-.053 4.949 13.986.105v-5.106" fill="none" stroke-linecap="square" stroke-linejoin="round"/><path d="M1524.027 16.204V5.934" fill="#d8d8d8" stroke-dasharray="9.942752428209827,0.3276975717901733" stroke-dashoffset="9.942752" stroke-linejoin="round"/><path d="M1526.941 12.575l-2.915 4.026-2.965-4.132" fill="none" stroke-linecap="round"/></g><g stroke="#979797"><path d="M1541.06 14.332l-.053 5.13 13.986.108v-5.292" fill="none" stroke-linecap="square" stroke-linejoin="round"/><path d="M1548.027 16.204V5.934" fill="#d8d8d8" stroke-dasharray="10.050097694961304,0.2203523050386967" stroke-dashoffset="10.050098" stroke-linejoin="round"/><path d="M1550.941 12.691l-2.915 4.026-2.965-4.132" fill="none" stroke-linecap="round"/></g><g stroke="#979797"><path d="M1565.06 14.334l-.053 5.359 13.986.114v-5.529" fill="none" stroke-linecap="square" stroke-linejoin="round"/><path d="M1572.027 16.204V5.934" fill="#d8d8d8" stroke-dasharray="10.133389123742255,0.1370608762577459" stroke-dashoffset="10.133389" stroke-linejoin="round"/><path d="M1574.94 12.78l-2.915 4.026-2.965-4.132" fill="none" stroke-linecap="round"/></g><g stroke="#979797"><path d="M1589.06 14.336l-.053 5.565 13.986.118v-5.741" fill="none" stroke-linecap="square" stroke-linejoin="round"/><path d="M1596.027 16.204V5.934" fill="#d8d8d8" stroke-dasharray="10.19510864440061,0.07534135559939066" stroke-dashoffset="10.195109" stroke-linejoin="round"/><path d="M1598.94 12.846l-2.915 4.026-2.965-4.132" fill="none" stroke-linecap="round"/></g><g stroke="#979797"><path d="M1613.06 14.338l-.053 5.72 13.986.121v-5.901" fill="none" stroke-linecap="square" stroke-linejoin="round"/><path d="M1620.027 16.204V5.934" fill="#d8d8d8" stroke-dasharray="10.237361579197927,0.033088420802072555" stroke-dashoffset="10.237362" stroke-linejoin="round"/><path d="M1622.94 12.891l-2.915 4.026-2.965-4.132" fill="none" stroke-linecap="round"/></g><g stroke="#979797"><path d="M1637.06 14.339l-.053 5.835 13.986.123v-6.019" fill="none" stroke-linecap="square" stroke-linejoin="round"/><path d="M1644.027 16.204V5.934" fill="#d8d8d8" stroke-dasharray="10.261948962804226,0.008501037195775107" stroke-dashoffset="10.261949" stroke-linejoin="round"/><path d="M1646.94 12.918l-2.915 4.026-2.965-4.132" fill="none" stroke-linecap="round"/></g><g stroke="#979797"><path d="M1661.06 14.34l-.053 5.919 13.986.125v-6.106" fill="none" stroke-linecap="square" stroke-linejoin="round"/><path d="M1668.027 16.204V5.934" fill="#d8d8d8" stroke-dasharray="10.270423539301646,0.000026460698354015855" stroke-dashoffset="10.270424" stroke-linejoin="round"/><path d="M1670.94 12.927l-2.915 4.026-2.965-4.132" fill="none" stroke-linecap="round"/></g><g stroke="#979797"><path d="M1685.06 14.341l-.053 5.98 13.986.127v-6.17" fill="none" stroke-linecap="square" stroke-linejoin="round"/><path d="M1692.027 16.204V5.934" fill="#d8d8d8" stroke-linejoin="round"/><path d="M1694.94 12.927l-2.915 4.026-2.965-4.132" fill="none" stroke-linecap="round"/></g><g stroke="#979797"><path d="M1709.06 14.341l-.053 6.026 13.986.127v-6.216" fill="none" stroke-linecap="square" stroke-linejoin="round"/><path d="M1716.027 16.204V5.934" fill="#d8d8d8" stroke-linejoin="round"/><path d="M1718.94 12.927l-2.915 4.026-2.965-4.132" fill="none" stroke-linecap="round"/></g><g stroke="#979797"><path d="M1733.06 14.342l-.053 6.057 13.986.128v-6.249" fill="none" stroke-linecap="square" stroke-linejoin="round"/><path d="M1740.027 16.204V5.934" fill="#d8d8d8" stroke-linejoin="round"/><path d="M1742.94 12.927l-2.915 4.026-2.965-4.132" fill="none" stroke-linecap="round"/></g><g stroke="#979797"><path d="M1757.06 14.342l-.053 6.079 13.986.128v-6.271" fill="none" stroke-linecap="square" stroke-linejoin="round"/><path d="M1764.027 16.204V5.934" fill="#d8d8d8" stroke-linejoin="round"/><path d="M1766.94 12.927l-2.915 4.026-2.965-4.132" fill="none" stroke-linecap="round"/></g><g stroke="#979797"><path d="M1781.06 14.342l-.053 6.092 13.986.129v-6.285" fill="none" stroke-linecap="square" stroke-linejoin="round"/><path d="M1788.027 16.204V5.934" fill="#d8d8d8" stroke-linejoin="round"/><path d="M1790.94 12.927l-2.915 4.026-2.965-4.132" fill="none" stroke-linecap="round"/></g><g stroke="#979797"><path d="M1805.06 14.342l-.053 6.097 13.986.129v-6.29" fill="none" stroke-linecap="square" stroke-linejoin="round"/><path d="M1812.027 16.204V5.934" fill="#d8d8d8" stroke-linejoin="round"/><path d="M1814.94 12.927l-2.915 4.026-2.965-4.132" fill="none" stroke-linecap="round"/></g><g stroke="#979797"><path d="M1829.06 14.34l-.053 5.908 13.986.125v-6.095" fill="none" stroke-linecap="square" stroke-linejoin="round"/><path d="M1836.027 16.204V5.934" fill="#d8d8d8" stroke-linejoin="round"/><path d="M1838.94 12.927l-2.915 4.026-2.965-4.132" fill="none" stroke-linecap="round"/></g><g stroke="#979797"><path d="M1853.06 14.337l-.053 5.672 13.986.12v-5.851" fill="none" stroke-linecap="square" stroke-linejoin="round"/><path d="M1860.027 16.204V5.934" fill="#d8d8d8" stroke-linejoin="round"/><path d="M1862.94 12.927l-2.915 4.026-2.965-4.132" fill="none" stroke-linecap="round"/></g><g stroke="#979797"><path d="M1877.06 14.336l-.053 5.49 13.986.116v-5.664" fill="none" stroke-linecap="square" stroke-linejoin="round"/><path d="M1884.027 16.204V5.934" fill="#d8d8d8" stroke-linejoin="round"/><path d="M1886.94 12.927l-2.915 4.026-2.965-4.132" fill="none" stroke-linecap="round"/></g><g stroke="#979797"><path d="M1901.06 14.334l-.053 5.344 13.986.113v-5.513" fill="none" stroke-linecap="square" stroke-linejoin="round"/><path d="M1908.027 16.204V5.934" fill="#d8d8d8" stroke-linejoin="round"/><path d="M1910.94 12.927l-2.915 4.026-2.965-4.132" fill="none" stroke-linecap="round"/></g><g stroke="#979797"><path d="M1925.06 14.333l-.053 5.223 13.986.111v-5.389" fill="none" stroke-linecap="square" stroke-linejoin="round"/><path d="M1932.027 16.204V5.934" fill="#d8d8d8" stroke-linejoin="round"/><path d="M1934.94 12.927l-2.915 4.026-2.965-4.132" fill="none" stroke-linecap="round"/></g><g stroke="#979797"><path d="M1949.06 14.332l-.053 5.123 13.986.108v-5.285" fill="none" stroke-linecap="square" stroke-linejoin="round"/><path d="M1956.027 16.204V5.934" fill="#d8d8d8" stroke-linejoin="round"/><path d="M1958.94 12.927l-2.915 4.026-2.965-4.132" fill="none" stroke-linecap="round"/></g><g stroke="#979797"><path d="M1973.06 14.331l-.053 5.04 13.986.107v-5.2" fill="none" stroke-linecap="square" stroke-linejoin="round"/><path d="M1980.027 16.204V5.934" fill="#d8d8d8" stroke-linejoin="round"/><path d="M1982.94 12.927l-2.915 4.026-2.965-4.132" fill="none" stroke-linecap="round"/></g><g stroke="#979797"><path d="M1997.06 14.33l-.053 4.972 13.986.105v-5.129" fill="none" stroke-linecap="square" stroke-linejoin="round"/><path d="M2004.027 16.204V5.934" fill="#d8d8d8" stroke-linejoin="round"/><path d="M2006.94 12.927l-2.915 4.026-2.965-4.132" fill="none" stroke-linecap="round"/></g><g stroke="#979797"><path d="M2021.06 14.329l-.053 4.916 13.986.104v-5.071" fill="none" stroke-linecap="square" stroke-linejoin="round"/><path d="M2028.027 16.204V5.934" fill="#d8d8d8" stroke-linejoin="round"/><path d="M2030.94 12.927l-2.915 4.026-2.965-4.132" fill="none" stroke-linecap="round"/></g><g stroke="#979797"><path d="M2045.06 14.329l-.053 4.87 13.986.103v-5.024" fill="none" stroke-linecap="square" stroke-linejoin="round"/><path d="M2052.027 16.204V5.934" fill="#d8d8d8" stroke-linejoin="round"/><path d="M2054.94 12.927l-2.915 4.026-2.965-4.132" fill="none" stroke-linecap="round"/></g><g stroke="#979797"><path d="M2069.06 14.329l-.053 4.835 13.986.102v-4.988" fill="none" stroke-linecap="square" stroke-linejoin="round"/><path d="M2076.027 16.204V5.934" fill="#d8d8d8" stroke-linejoin="round"/><path d="M2078.94 12.927l-2.915 4.026-2.965-4.132" fill="none" stroke-linecap="round"/></g><g stroke="#979797"><path d="M2093.06 14.328l-.053 4.81 13.986.101v-4.961" fill="none" stroke-linecap="square" stroke-linejoin="round"/><path d="M2100.027 16.204V5.934" fill="#d8d8d8" stroke-linejoin="round"/><path d="M2102.94 12.927l-2.915 4.026-2.965-4.132" fill="none" stroke-linecap="round"/></g><g stroke="#979797"><path d="M2117.06 14.328l-.053 4.792 13.986.101v-4.943" fill="none" stroke-linecap="square" stroke-linejoin="round"/><path d="M2124.027 16.204V5.934" fill="#d8d8d8" stroke-linejoin="round"/><path d="M2126.94 12.927l-2.915 4.026-2.965-4.132" fill="none" stroke-linecap="round"/></g><g stroke="#979797"><path d="M2141.06 14.328l-.053 4.781 13.986.101v-4.932" fill="none" stroke-linecap="square" stroke-linejoin="round"/><path d="M2148.027 16.204V5.934" fill="#d8d8d8" stroke-linejoin="round"/><path d="M2150.94 12.927l-2.915 4.026-2.965-4.132" fill="none" stroke-linecap="round"/></g><g stroke="#979797"><path d="M2165.06 14.328l-.053 4.778 13.986.101v-4.929" fill="none" stroke-linecap="square" stroke-linejoin="round"/><path d="M2172.027 16.204V5.934" fill="#d8d8d8" stroke-linejoin="round"/><path d="M2174.94 12.927l-2.915 4.026-2.965-4.132" fill="none" stroke-linecap="round"/></g></svg>